PathFileType	4	(X/Y/Z)	D:\TRACE\spot_10-12-23\spot_body_motion_1_5-platform.trc
DataRate	CameraRate	NumFrames	NumMarkers	Units	OrigDataRate	OrigDataStartFrame	OrigNumFrames
100.00	100.00	      24	5	mm	100.00	3501	      7000
Frame#	Time	Left_Front			Right_Front			Left_Aft			Right_Aft			Post			
		X1	Y1	Z1	X2	Y2	Z2	X3	Y3	Z3	X4	Y4	Z4	X5	Y5	Z5	

3501	35.000	-731.57092	-10.96762	-645.49139	841.14484	-5.92444	-638.66394	-648.58850	17.23172	492.01605	768.72382	24.42349	578.13214	51.30092	718.29120	-982.29431	
3502	35.010	-731.70801	-10.78816	-645.47089	840.88129	-5.67600	-638.59583	-648.73663	16.99888	492.42853	768.46954	24.10989	578.18524	51.23599	718.66394	-981.91962	
3503	35.020	-732.03345	-10.41398	-645.40533	840.60199	-5.46844	-638.51752	-649.17462	16.92076	492.16711	768.33234	23.97893	578.30945	50.99326	719.01373	-981.42291	
3504	35.030	-732.41907	-10.01661	-645.30243	840.27032	-5.27961	-638.46509	-649.46558	16.73299	492.19708	768.16235	23.83513	578.37811	50.84348	719.46899	-981.04132	
3505	35.040	-732.36438	-9.98153	-645.29242	839.83984	-4.97041	-638.40497	-649.65363	16.53270	492.23441	767.70874	23.48447	578.45898	50.57711	719.75977	-980.70740	
3506	35.050	-732.67529	-9.69060	-645.21094	839.49042	-4.65450	-638.43195	-649.95917	16.33809	492.26743	767.36719	23.18666	578.54645	50.07518	720.18182	-980.49481	
3507	35.060	-732.86395	-9.54344	-645.09692	839.35083	-4.41822	-638.38306	-650.19855	16.10563	492.32642	767.05707	23.03499	578.62817	49.52898	720.65350	-980.34607	
3508	35.070	-733.28845	-9.12406	-644.94891	839.13531	-4.10266	-638.25714	-650.49640	15.81432	492.44330	766.87677	22.92450	578.69440	49.08240	721.09894	-980.10565	
3509	35.080	-733.47937	-9.13229	-644.95135	838.80353	-3.80055	-638.16675	-650.90265	15.46895	492.77460	766.62817	22.69200	578.79651	48.88207	721.55756	-979.80328	
3510	35.090	-734.01105	-8.70445	-644.88538	838.39636	-3.56068	-638.20746	-651.26270	15.29044	492.82745	766.09570	22.31023	578.93561	48.69183	722.08539	-979.49048	
3511	35.100	-734.52673	-8.31130	-644.83978	837.99854	-3.23973	-638.08032	-651.58893	15.14831	492.98386	765.64728	22.11545	579.03809	48.46006	722.61371	-979.18060	
3512	35.110	-734.98224	-8.07369	-644.74615	837.54138	-2.92367	-637.95520	-652.10052	14.92039	493.13583	765.14551	21.88648	579.11194	47.86441	723.11749	-978.75537	
3513	35.120	-735.49249	-7.62550	-644.67755	837.04712	-2.46281	-637.81732	-652.62598	14.66616	493.11121	764.66315	21.61880	579.06598	47.17395	723.54913	-978.24762	
3514	35.130	-736.08044	-6.96667	-644.64563	836.59937	-2.15677	-637.82544	-653.04803	14.46363	493.14844	764.31171	21.32670	579.08392	46.80015	723.82562	-977.65594	
3515	35.140	-736.34802	-6.93661	-644.46893	836.20532	-1.86726	-637.77185	-653.44696	14.46126	493.20334	763.90143	21.02203	579.24731	46.35384	724.16565	-977.13849	
3516	35.150	-736.74963	-6.52271	-644.42371	835.90204	-1.65797	-637.68073	-653.87183	14.34709	493.28815	763.55420	20.76867	579.41248	45.76867	724.69208	-976.62396	
3517	35.160	-737.19464	-6.38730	-644.40613	835.22925	-1.08339	-637.60529	-654.52301	13.97952	493.24020	763.00751	20.57652	579.45801	45.28569	725.30548	-976.19019	
3518	35.170	-737.91956	-5.80080	-644.21777	834.76642	-0.54051	-637.62982	-654.99017	13.83178	493.37540	762.65515	19.96991	579.08942	44.88494	725.80273	-975.51935	
3519	35.180	-738.62524	-5.52087	-644.17181	834.30756	-0.43697	-637.59613	-655.36383	13.67006	493.37357	762.24127	19.74896	579.17999	44.55677	726.29614	-975.12189	
3520	35.190	-739.03906	-5.25353	-644.16382	833.89966	-0.21710	-637.49146	-655.86938	13.44188	493.46432	761.69891	19.61070	579.28229	44.02066	726.92236	-974.76404	
3521	35.200	-739.55481	-4.81626	-644.10309	833.27283	0.11929	-637.40839	-656.57843	12.97614	493.49567	761.19141	19.25336	579.38654	43.51098	727.41174	-974.39703	
3522	35.210	-739.24310	-5.10667	-644.28418	832.51770	0.55156	-637.33441	-656.95428	12.81730	493.64359	760.64923	19.05185	579.50916	42.87438	727.81573	-973.99597	
3523	35.220	-739.98145	-4.50113	-643.93561	832.20605	0.73148	-637.17975	-657.47363	12.67329	493.75732	760.25775	18.94638	579.58636	42.20566	728.23248	-973.65411	
3524	35.230	-740.86151	-4.06320	-643.85651	831.65967	0.99291	-637.11249	-658.09454	12.33784	493.79254	759.42334	18.22378	579.60400	41.80675	728.70074	-973.39557	
